Patient4_TMGait_0pt7_01_right_02_EMG.mot
version=1
nRows=30
nColumns=33
inDegrees=no
endheader
time	1LAddLong	2LGlutMax	3LGlutMed	4LIliopsoas	5LSemiMemb	6LBicFemLong	7LRecFem	8LVastMed	9LVastLat	10LGasMed	11LTibAnt	12lTibPost	13LPeroneusLong	14LSol	15LExtDigLong	16LFlexDigLong	17RAddLong	18RGlutMax	19RGlutMed	20RIliopsoas	21RSemiMemb	22RBicFemLong	23RRecFem	24RVastMed	25RVastLat	26RGasMed	27RTibAnt	28RTibPost	29RPeroneusLong	30RSol	31RExtDigLong	32RFlexDigLong
1.71	-0.059662	-0.14267	-0.038147	0.003204	0.009003	0.008545	0.10773	-0.001373	0.032501	-0.24445	-0.007935	0.009308	-0.026703	-0.224	0.16815	-0.013123	0.09964	-0.1889	0.29495	-0.12558	-0.027924	-0.018463	0.053253	-0.1004	0.005035	-0.023651	0.19623	-0.005493	-0.21439	-0.025787	0.002136	-0.01358
1.711	0.052338	-0.13001	-0.075226	0.00412	0.011292	-0.001221	0.063934	0.006409	-0.089569	-0.1593	-0.00351	0.014496	-0.045319	-0.1944	0.22125	-0.005798	0.072327	-0.14648	0.25131	-0.13443	-0.042725	-0.028229	0.036316	-0.090637	-0.00885	-0.026703	0.33234	0.005341	-0.25406	0.003967	0.002594	-0.011292
1.712	0.040131	-0.11704	-0.008087	-0.005493	0.009918	0.00946	0.066681	0.011749	-0.070496	-0.10223	-0.028839	0.007629	-0.053406	-0.20523	0.21545	-0.018463	0.006256	-0.19119	0.36987	-0.072174	-0.024414	-0.023499	0.097656	-0.10117	0.00412	-0.024414	0.3363	0.001526	-0.070801	-0.044861	0.002289	-0.007935
1.713	-0.010071	-0.14648	-0.024261	0.016174	0.00946	-0.007172	0.069122	0.020294	-0.064087	-0.063782	-0.028839	-0.000763	-0.033875	-0.15228	0.19547	0.004272	-0.076294	-0.19959	0.36591	0.012054	-0.024872	-0.00885	0.14633	-0.065155	-0.002289	-0.029907	0.25711	-0.005188	-0.020752	-0.007019	0.004578	-0.011597
1.714	0.000916	-0.11063	-0.045471	0.000916	0.006714	-0.014954	-0.044098	0.021973	-0.013428	-0.04425	-0.016174	0.008087	-0.029755	-0.12909	0.16846	0.009308	-0.063782	-0.22003	0.35614	0.090637	-0.055237	-0.00473	0.18249	-0.054016	-0.022736	-0.021515	0.11566	-0.00473	0.17593	-0.021057	0.000153	-0.005341
1.715	0.003815	-0.13825	-0.047607	0.01297	0.003204	-0.018005	-0.034485	0.017853	0.22522	-0.021362	0.031738	0.012207	-0.013885	-0.081024	0.13992	0.011444	-0.059052	-0.21912	-0.02243	0.22736	-0.078278	-0.056915	0.16357	-0.046844	-0.011444	-0.014496	0.064545	-0.008545	0.15839	-0.10895	0.003815	-0.013885
1.716	0.010376	-0.091553	-0.049286	0.022278	0.006714	-0.0177	0.043945	-0.000458	0.24475	-0.004578	0.056763	0.012817	0.005341	-0.065613	0.1268	0.012207	-0.012207	-0.24551	-0.20737	0.24887	-0.08728	-0.068054	0.10284	-0.089569	-0.019379	-0.012207	-0.25482	-0.006409	0.024719	-0.1918	0.000153	-0.007935
1.717	0.003357	-0.15045	-0.11047	0.015106	0.012665	-0.007782	0.083771	-0.023499	0.23163	0.005646	0.028381	0.011597	0.006256	-0.019226	0.3685	0.001526	0.070343	-0.1918	-0.15717	0.13519	-0.093384	-0.11246	0.081635	-0.17014	-0.019684	-0.010986	-0.48325	-0.005646	-0.48904	-0.17288	0.002289	-0.002747
1.718	-0.001373	-0.13214	-0.1297	0.007172	0.010376	0.010376	0.11032	-0.015106	0.14145	0.013428	0.041351	0.00885	0.005341	-0.041962	0.18066	0.015564	0.15167	-0.25803	-0.10834	-0.012512	-0.08255	-0.17563	0.070343	-0.18814	-0.034332	-0.023651	-0.2002	-0.005341	-0.57297	0.008392	0.000305	-0.000305
1.719	-0.015411	-0.13779	-0.056915	0.003357	0.012512	-0.006104	0.1297	-0.001984	0.15991	0.020447	0.094757	0.000763	-0.006256	0.049744	-0.077362	0.002289	0.15366	-0.21683	0.16953	-0.091248	-0.03479	-0.22018	0.027771	-0.15564	-0.019073	-0.015564	-0.070496	-0.005188	-0.25543	0.092163	-0.003662	-0.008087
1.72	-0.003967	-0.15167	-0.056763	0.006104	0.010071	-0.01236	0.088654	0.002441	0.15656	0.009918	0.19791	0.002289	-0.024261	0.038605	-0.016632	-0.000458	0.10056	-0.22232	0.30945	-0.063629	-0.039063	-0.16235	0.049286	-0.13123	-0.034637	-0.020752	-0.20752	-0.007019	-0.40543	0.17273	0.001221	-0.006256
1.721	0.006409	-0.11566	-0.10223	-0.002441	0.007629	-0.009918	0.068665	-0.005798	0.14084	0.020142	0.23605	0.001068	-0.054626	0.024872	0.46799	-0.012665	0.02182	-0.24109	0.40298	0.061798	-0.033112	-0.18005	0.053711	-0.07782	-0.020294	-0.019836	0.012054	-0.007019	-0.50568	0.15167	0.000763	-0.002136
1.722	0.002594	-0.11276	-0.011444	0.007324	0.012054	-0.031586	0.094452	-0.004425	0.1561	0.038757	0.24765	0.002747	-0.06897	0.008087	0.58395	-0.004425	-0.081482	-0.26184	0.18021	0.095825	-0.031281	-0.1503	0.050812	-0.061646	-0.017242	-0.005341	0.11719	-0.003967	-0.34454	-0.017242	-0.001221	0
1.723	0.001984	-0.08606	-0.074615	-0.005798	0.011749	-0.029449	0.056763	0.003204	0.20462	0.033112	0.19943	0.003204	0.013885	0.022888	0.12726	0.013275	-0.18097	-0.26413	0.063629	0.081024	-0.031433	-0.09613	-0.002899	-0.028992	-0.014343	0.008087	-0.079803	-0.002747	0.95398	-0.14191	0.003815	-0.000153
1.724	0.010529	-0.08667	-0.12619	0.004425	0.01709	-0.027466	0.095825	0.002747	0.23956	0.015411	-0.30502	0.00412	0.15991	0.062103	-0.09613	0.013733	-0.2121	-0.22797	0.11154	-0.078888	0.002594	-0.072174	0.006714	-0.041656	-0.029755	0.015564	0.046997	-0.005035	0.79636	-0.10712	-0.000458	0.001221
1.725	0.005951	-0.027924	-0.05188	0.015869	0.010529	-0.003662	0.10788	0.005646	0.23468	-0.001831	-0.36026	0.006104	0.21271	0.15335	-0.11749	0.006409	-0.19867	-0.20889	0.16525	-0.1297	0.009918	-0.065613	-0.023804	-0.05127	0.006714	0.01236	0.23285	-0.000153	0.043793	-0.030212	-0.000458	-0.005035
1.726	0.000153	0.009308	0.017548	0.004578	0.013733	-0.002899	0.052032	-0.00351	0.2356	0.013428	-0.013428	0.005951	0.11429	0.17334	0.089874	0.006409	-0.18524	-0.17746	0.31265	-0.095673	0.004883	-0.045013	-0.011292	-0.034943	-0.016174	0.010223	0.28381	-0.003815	-0.17242	0.008087	-0.004425	-0.009918
1.727	0.007782	-0.026093	0.014038	0.010071	0.005188	0.001984	0.023041	-0.002289	0.27115	-0.009308	0.059662	0.002441	0.075989	0.14236	0.19012	-0.001373	-0.15823	-0.18387	0.24124	-0.03891	-0.034943	-0.023346	-0.001526	-0.056915	-0.021515	0.017548	-0.10712	-0.003204	0.34851	0.039368	-0.000305	-0.013275
1.728	0.001984	-0.033417	0.063782	-0.009003	0.013275	-0.003662	0.065002	-0.004425	0.20142	-0.022583	-0.076752	0.003815	0.038452	0.16403	-0.22964	-0.003204	-0.11414	-0.19867	0.27756	-0.08316	-0.058289	-0.010681	-0.009766	-0.048065	-0.033112	0.02533	-0.31708	-0.004578	0.53467	0.035553	0.002747	-0.015564
1.729	-0.000458	-0.007782	0.041656	-0.000763	0.012665	0.001678	0.096436	-0.000305	0.072632	-0.021667	-0.039825	0.008698	-0.001526	0.14191	-0.45639	-0.018463	-0.097046	-0.17899	0.27786	-0.1355	-0.011444	-0.012665	0.019836	-0.017548	-0.017853	0.029297	-0.38589	-0.001678	0.42862	0.11398	-0.000916	-0.011902
1.73	0.003662	-0.011139	0.006256	0.011292	0.004578	0.017548	0.091705	0.001373	0.061188	-0.013123	-0.025482	0.010071	0.032501	0.037079	0.009613	-0.038757	-0.072479	-0.1358	0.020905	-0.00946	-0.001831	-0.057373	-0.00473	-0.051727	-0.019989	0.031891	-0.022888	-0.003967	-0.23422	0.075378	0.001831	-0.014954
1.731	0.003967	-0.014648	-0.003662	0.013733	0.010071	0.003815	0.095673	0.001221	0.09964	-0.003204	-0.24063	0	0.066833	0	-0.098419	-0.023041	-0.039673	-0.16525	0.10834	0.004272	-0.008545	-0.06424	0.011139	-0.04715	-0.014954	0.028687	0.14801	-0.003662	-0.23056	0.013733	0.001373	-0.010529
1.732	0.003967	0.000153	0.076752	-0.001068	0.006714	-0.003052	0.1152	-0.006714	0.10498	0.0383	-0.31143	0.003052	-0.029755	0.049133	0.23911	-0.00412	-0.010681	-0.16296	0.47302	-0.050964	-0.003815	-0.089569	0.041351	-0.09964	-0.034027	0.029449	0.20371	-0.006256	0.14816	0.022888	0.002136	-0.014801
1.733	0.005035	-0.029602	0.044098	0.007629	0.011749	0.008087	0.09552	0.002899	0.091095	0.02121	0.084229	0.007935	-0.085297	0.12238	-0.042419	-0.005493	0.017548	-0.11627	0.88989	-0.00824	0.018311	-0.084534	0.079956	-0.1387	-0.016632	0.029755	0.005035	-0.007324	0.051117	0.075073	-0.001831	-0.009766
1.734	-0.001068	-0.056152	0.029144	-0.005798	0.014954	0.005341	0.1149	0.005341	0.076904	-0.013428	0.24475	0.006866	-0.12421	0.065002	-0.43778	-0.77316	0.007629	-0.13718	0.42084	0.080872	0.037689	-0.064697	0.05722	-0.11978	-0.021057	0.023956	-0.11292	-0.002441	-0.24674	0.054169	-0.001221	-0.014191
1.735	-0.001068	-0.084076	0.036926	0.01297	0.01358	-0.007172	0.12146	0.002136	0.07782	-0.024109	0.19257	0.014496	-0.092926	-0.043793	-0.69855	-1.0767	-0.00824	-0.13458	0.27725	0.17364	-0.080719	0.001526	0.005341	-0.088348	-0.010834	0.028381	0.045929	-0.003662	-0.16068	-0.048676	-0.001526	-0.002289
1.736	0.015106	-0.095825	0.030518	0.011902	0.006714	0.010834	0.11139	0.007782	0.078888	0.005951	-0.20294	0.019989	0.042877	-0.009613	-0.93231	0.67017	-0.004272	-0.1326	-0.045013	0.21759	-0.12161	-0.006409	0.034485	-0.1033	-0.012207	0.025482	0.032654	-0.007629	0.10483	-0.009766	-0.001373	-0.010223
1.737	0.005951	-0.091553	-0.040588	0.001831	0.010376	0.002899	0.11139	0.003967	0.068207	0.040894	-0.15595	0.005035	0.10208	0.032501	-0.60532	-0.099487	0.015411	-0.11673	-0.076447	0.20554	-0.14435	0.018158	-0.007629	-0.13306	-0.00946	0.027924	0.004883	-0.000916	0.053558	-0.010529	-0.00061	-0.011902
1.738	0.005646	-0.11841	-0.014496	-0.002899	0.000305	-0.027466	0.11627	-0.005188	0.050354	0.090027	-0.007629	-0.006256	-0.045471	-0.15976	-0.29633	0.037537	0.021973	-0.094757	-0.001526	0.081177	-0.16083	0.018158	-0.1059	-0.14999	-0.022125	0.025482	0.047455	-0.006256	0.16327	0.01297	-0.003052	-0.0383
1.739	0.003967	-0.10757	0.087128	0.010529	0.004425	-0.024109	0.10178	0.000916	0.056305	-0.004578	0.009918	-0.000305	-0.010681	-0.016174	-0.10666	0.92407	0.033112	-0.09491	0.080872	0.036774	-0.077515	0.04303	-0.12787	-0.11932	-0.000305	0.015106	0.074463	-0.004272	0.15549	0.031586	0.001221	-0.036316
